<svg id="value-borrowed-icon" xmlns="http://www.w3.org/2000/svg" width="36.736" height="35.439" viewBox="0 0 36.736 35.439">
  <g id="loans-icon" transform="translate(-242.535 -41.2)">
    <circle id="Ellipse_39" data-name="Ellipse 39" cx="8.16" cy="8.16" r="8.16" transform="translate(255.075 42.439)" fill="#ffdedb"/>
    <g id="Group_388" data-name="Group 388" transform="translate(243.704 64.93)">
      <g id="Group_387" data-name="Group 387" transform="translate(0 0)">
        <path id="Path_845" data-name="Path 845" d="M252.344,143.876c-1.536,1.049-3.259,2.285-4.308,3.072a1.15,1.15,0,0,0-.225,1.648l4.57,5.919a1.183,1.183,0,0,0,1.648.225l1.686-1.311a1.561,1.561,0,0,1,1.386-.262,37.9,37.9,0,0,0,8.5,1.723c4.683.225,13.711-5.319,16.3-7.118a2.406,2.406,0,0,0-2.135-4.308,40.566,40.566,0,0,1-4.42,1.2,5.1,5.1,0,0,1-3.634,2.248,13.9,13.9,0,0,1-1.423.15c-1.274.037-2.772-.112-4.421-.225-.112,0-.225-.037-.337-.037a.842.842,0,0,1-.787-.749" transform="translate(-247.561 -143.265)" fill="#ffdedb"/>
      </g>
    </g>
    <g id="Group_390" data-name="Group 390" transform="translate(242.535 59.989)">
      <g id="Group_389" data-name="Group 389" transform="translate(0)">
        <path id="Path_846" data-name="Path 846" d="M274.74,125.343a40.614,40.614,0,0,1-4.42,1.2,5.1,5.1,0,0,1-3.634,2.248,13.9,13.9,0,0,1-1.423.15c-1.274.038-2.772-.112-4.421-.225-.112,0-.225-.037-.337-.037a.842.842,0,0,1-.787-.749.772.772,0,0,1,.862-.862c.112,0,.262.038.375.038a22.554,22.554,0,0,0,5.432.112c2.36-.45,3.034-1.873,2.884-3.072a1.956,1.956,0,0,0-2.023-1.836,39.659,39.659,0,0,1-5.507-.15,35.311,35.311,0,0,0-5.956-.037,22.368,22.368,0,0,0-8.466,3.634c-1.536,1.049-3.259,2.285-4.308,3.072a1.15,1.15,0,0,0-.225,1.648l4.57,5.919a1.183,1.183,0,0,0,1.648.225l1.686-1.311a1.562,1.562,0,0,1,1.386-.262,37.912,37.912,0,0,0,8.5,1.723c4.683.225,13.711-5.319,16.3-7.118A2.406,2.406,0,0,0,274.74,125.343Z" transform="translate(-242.535 -122.011)" fill="#ff4345"/>
      </g>
    </g>
    <circle id="Ellipse_39-2" data-name="Ellipse 39" cx="8.16" cy="8.16" r="8.16" transform="translate(254.046 41.2)" fill="#ff4345"/>
    <path id="Path_827" data-name="Path 827" d="M314.027,54.669a2.654,2.654,0,0,1,1.706.709c.228.189.46.156.754-.117l.6-.593c.256-.238.256-.424,0-.713a3.443,3.443,0,0,0-1.518-.749l.291-1.24a.1.1,0,0,0-.07-.119.092.092,0,0,0-.029,0h-.515a.154.154,0,0,0-.147.1l-.263,1.134c-.219-.023-.447-.037-.682-.04l.249-1.074a.1.1,0,0,0-.07-.12.1.1,0,0,0-.029,0h-.515a.155.155,0,0,0-.147.1l-.263,1.134c-1.768.212-2.914,1.266-2.914,2.751a2.029,2.029,0,0,0,.7,1.545,4.023,4.023,0,0,0,1.508.8c.153.05.3.093.437.132.689.2,1.212.458,1.212.971,0,.534-.567.991-1.376.991a3.492,3.492,0,0,1-2.143-.9.449.449,0,0,0-.292-.126.717.717,0,0,0-.458.233l-.638.619a.457.457,0,0,0-.037.726,3.8,3.8,0,0,0,1.949,1.044l-.273,1.177a.138.138,0,0,0,.095.17.141.141,0,0,0,.045.005h.437a.175.175,0,0,0,.175-.126l.256-1.1c.208.02.42.033.635.033h.051l-.239,1.024a.138.138,0,0,0,.095.17.141.141,0,0,0,.045.005h.437a.175.175,0,0,0,.175-.126l.263-1.124a4.58,4.58,0,0,0,1.939-.68,2.888,2.888,0,0,0,1.239-2.383c0-1.442-1.324-1.9-2.491-2.32-.061-.023-.123-.043-.184-.066l-.075-.026c-.553-.2-1.147-.428-1.147-.961C312.791,55.038,313.31,54.669,314.027,54.669Z" transform="translate(-51.177 -8.17)" fill="#fff"/>
  </g>
</svg>
