<svg xmlns="http://www.w3.org/2000/svg" width="28" height="28" viewBox="0 0 156 156">
  <g id="_usdx" data-name="$usdx" transform="translate(-138 -118)">
    <circle id="Ellipse_24" data-name="Ellipse 24" cx="78" cy="78" r="78" transform="translate(138 118)" fill="#06d6a0"/>
    <path id="Path_759" data-name="Path 759" d="M-5308.925-3138.507c7.041,0,12.583,3.81,15.989,6.838,2.141,1.835,4.322,1.488,7.063-1.14l5.589-5.72c2.39-2.3,2.389-4.1-.008-6.876a32.184,32.184,0,0,0-14.229-7.238l2.705-11.955a.937.937,0,0,0-.925-1.187h-4.837a1.417,1.417,0,0,0-1.369,1l-2.471,10.922q-3.069-.336-6.4-.379l2.344-10.356a.937.937,0,0,0-.924-1.187h-4.84a1.415,1.415,0,0,0-1.368,1l-2.47,10.922c-16.577,2.062-27.31,12.208-27.31,26.537a19.938,19.938,0,0,0,6.577,14.919c4.427,4.2,10.122,6.411,14.12,7.692,1.438.472,2.794.883,4.1,1.281,6.455,1.958,11.35,4.417,11.35,9.376,0,5.161-5.3,9.549-12.884,9.549-7.425,0-15.725-4.482-20.087-8.712a4.123,4.123,0,0,0-2.717-1.224c-1.281,0-2.729.764-4.3,2.275l-5.993,5.993c-2.355,2.356-2.48,4.78-.365,7.006,4.242,4.75,10.685,8.239,18.271,10.085l-2.568,11.354a1.324,1.324,0,0,0,1.3,1.677h4.1a1.705,1.705,0,0,0,1.646-1.2l2.409-10.645a57.024,57.024,0,0,0,5.95.309c.162,0,.32-.005.482-.008l-2.231,9.871a1.324,1.324,0,0,0,1.3,1.677h4.1a1.709,1.709,0,0,0,1.647-1.2l2.457-10.854a41.894,41.894,0,0,0,18.151-6.562c7.335-5.072,11.6-13.957,11.6-22.978,0-13.911-12.406-18.316-23.352-22.384-.591-.217-1.16-.428-1.725-.641l-.7-.262c-5.19-1.937-10.761-4.139-10.761-9.26C-5320.5-3134.975-5315.621-3138.507-5308.925-3138.507Z" transform="translate(5530.898 3306.919)" fill="#fff"/>
  </g>
</svg>
